# xmcd
#
# Track frame offsets:
#	150
#	17227
#	33055
#	51913
#	66223
#	86098
#	108016
#	126870
#	145784
#	163736
#	184740
#	201042
#	220298
#	238690
#	256383
#	275119
#	292401
#	310778
#	331341
#
# Disc length: 4680 seconds
#
# Revision: 0
# Processed by: cddbd v1.5.2PL0 Copyright (c) Steve Scherf et al.
# Submitted via: EZCDAudioConverter 5.2.1.1
#
DISCID=22124613
DTITLE=Various Artist - Ministry Of Sound R&B Mixtape
DYEAR=2017
DGENRE=R&B
TTITLE0=SWV - Right Here
TTITLE1=TLC - Waterfalls
TTITLE2=Aaliyah - Age Ain't Nothing But A Number
TTITLE3=Brownstone - If You Love Me
TTITLE4=3T - Anything
TTITLE5=Blackstreet - Before I Let You Go
TTITLE6=Damage - Wonderful Tonight
TTITLE7=Jon B - They Dont Know
TTITLE8=Ray J - One Wish
TTITLE9=Case - Missing You
TTITLE10=City High - Caramel
TTITLE11=Keyshia Cole - Love
TTITLE12=Jazmine Sullivan - Lions, Tigers and Bears
TTITLE13=Angie Stone - Wish I Didn't Miss You
TTITLE14=Maxwell - Pretty Things
TTITLE15=Jill Scott - Golden
TTITLE16=Teedra Moses - Be Your Girl
TTITLE17=Faith Evans - I Love You
TTITLE18=D'Angelo - Brown Sugar
EXTD=
EXTT0=
EXTT1=
EXTT2=
EXTT3=
EXTT4=
EXTT5=
EXTT6=
EXTT7=
EXTT8=
EXTT9=
EXTT10=
EXTT11=
EXTT12=
EXTT13=
EXTT14=
EXTT15=
EXTT16=
EXTT17=
EXTT18=
PLAYORDER=
